G04 #@! TF.FileFunction,Paste,Top*
%FSLAX46Y46*%
G04 Gerber Fmt 4.6, Leading zero omitted, Abs format (unit mm)*
G04 Created by KiCad (PCBNEW 4.0.6) date Tuesday, August 01, 2017 'AMt' 06:59:47 AM*
%MOMM*%
%LPD*%
G01*
G04 APERTURE LIST*
%ADD10C,0.100000*%
%ADD11R,1.547600X0.557600*%
%ADD12R,0.847600X1.097600*%
%ADD13R,1.347600X0.447600*%
%ADD14R,0.547600X1.147600*%
%ADD15R,1.097600X0.847600*%
%ADD16R,0.297600X0.447600*%
%ADD17R,0.447600X0.297600*%
%ADD18R,2.006600X1.625600*%
%ADD19R,1.147600X0.547600*%
%ADD20R,0.447600X1.397600*%
%ADD21R,0.297600X1.297600*%
%ADD22R,1.347600X1.797600*%
%ADD23C,1.847600*%
G04 APERTURE END LIST*
D10*
D11*
X145728000Y-85847000D03*
X145728000Y-88397000D03*
X142903000Y-87122000D03*
D12*
X135550000Y-102575000D03*
X137550000Y-102575000D03*
D13*
X116426000Y-95377000D03*
X116426000Y-96647000D03*
X116426000Y-97917000D03*
X116426000Y-99187000D03*
X116426000Y-100457000D03*
X116426000Y-101727000D03*
X116426000Y-102997000D03*
X121826000Y-102997000D03*
X121826000Y-101727000D03*
X121826000Y-100457000D03*
X121826000Y-99187000D03*
X121826000Y-97917000D03*
X121826000Y-96647000D03*
X121826000Y-95377000D03*
D14*
X110050000Y-106675000D03*
X111950000Y-106675000D03*
D12*
X118253000Y-124460000D03*
X120253000Y-124460000D03*
X113557692Y-96591820D03*
X111557692Y-96591820D03*
X113557692Y-99639820D03*
X111557692Y-99639820D03*
X113395000Y-116078000D03*
X111395000Y-116078000D03*
D15*
X123444000Y-118094000D03*
X123444000Y-116094000D03*
D12*
X135500000Y-112975000D03*
X137500000Y-112975000D03*
X135525000Y-93375000D03*
X137525000Y-93375000D03*
X135525000Y-82600000D03*
X137525000Y-82600000D03*
D15*
X159258000Y-116221000D03*
X159258000Y-118221000D03*
X159385000Y-105934000D03*
X159385000Y-107934000D03*
X159385000Y-96790000D03*
X159385000Y-98790000D03*
X159131000Y-85868000D03*
X159131000Y-87868000D03*
X181229000Y-117967000D03*
X181229000Y-115967000D03*
X181229000Y-108061000D03*
X181229000Y-106061000D03*
X181356000Y-98028000D03*
X181356000Y-96028000D03*
X181356000Y-87868000D03*
X181356000Y-85868000D03*
D16*
X123444000Y-122843000D03*
X123444000Y-120743000D03*
D17*
X120743000Y-113284000D03*
X122843000Y-113284000D03*
D16*
X172212000Y-118144000D03*
X172212000Y-116044000D03*
X172212000Y-107984000D03*
X172212000Y-105884000D03*
X172212000Y-98586000D03*
X172212000Y-96486000D03*
X172212000Y-87918000D03*
X172212000Y-85818000D03*
D18*
X177292000Y-116078000D03*
X177292000Y-120142000D03*
X177165000Y-105918000D03*
X177165000Y-109982000D03*
X177038000Y-96520000D03*
X177038000Y-100584000D03*
X177038000Y-85852000D03*
X177038000Y-89916000D03*
D14*
X111948000Y-103124000D03*
X110048000Y-103124000D03*
D19*
X142000000Y-121975000D03*
X142000000Y-123875000D03*
X142030000Y-110450000D03*
X142030000Y-112350000D03*
X142050000Y-100900000D03*
X142050000Y-102800000D03*
X142050000Y-90250000D03*
X142050000Y-92150000D03*
D14*
X155001000Y-116078000D03*
X153101000Y-116078000D03*
X155001000Y-105918000D03*
X153101000Y-105918000D03*
X155001000Y-96774000D03*
X153101000Y-96774000D03*
X155001000Y-85852000D03*
X153101000Y-85852000D03*
X164145000Y-116332000D03*
X162245000Y-116332000D03*
X164018000Y-106172000D03*
X162118000Y-106172000D03*
X163891000Y-97028000D03*
X161991000Y-97028000D03*
X163891000Y-86106000D03*
X161991000Y-86106000D03*
D19*
X168021000Y-116144000D03*
X168021000Y-118044000D03*
X168021000Y-105857000D03*
X168021000Y-107757000D03*
X168021000Y-96713000D03*
X168021000Y-98613000D03*
X168021000Y-85791000D03*
X168021000Y-87691000D03*
D20*
X116967000Y-121539000D03*
X118237000Y-121539000D03*
X119507000Y-121539000D03*
X120777000Y-121539000D03*
X120777000Y-116139000D03*
X119507000Y-116139000D03*
X118237000Y-116139000D03*
X116967000Y-116139000D03*
D21*
X137328000Y-119294000D03*
X137978000Y-119294000D03*
X138628000Y-119294000D03*
X139278000Y-119294000D03*
X139278000Y-114894000D03*
X138628000Y-114894000D03*
X137978000Y-114894000D03*
X137328000Y-114894000D03*
X137328000Y-109134000D03*
X137978000Y-109134000D03*
X138628000Y-109134000D03*
X139278000Y-109134000D03*
X139278000Y-104734000D03*
X138628000Y-104734000D03*
X137978000Y-104734000D03*
X137328000Y-104734000D03*
X137328000Y-99990000D03*
X137978000Y-99990000D03*
X138628000Y-99990000D03*
X139278000Y-99990000D03*
X139278000Y-95590000D03*
X138628000Y-95590000D03*
X137978000Y-95590000D03*
X137328000Y-95590000D03*
X137328000Y-89068000D03*
X137978000Y-89068000D03*
X138628000Y-89068000D03*
X139278000Y-89068000D03*
X139278000Y-84668000D03*
X138628000Y-84668000D03*
X137978000Y-84668000D03*
X137328000Y-84668000D03*
D22*
X108000000Y-95200000D03*
X108000000Y-92450000D03*
D12*
X133775000Y-100525000D03*
X135775000Y-100525000D03*
X133800000Y-91275000D03*
X135800000Y-91275000D03*
X135525000Y-80625000D03*
X137525000Y-80625000D03*
X133800000Y-111050000D03*
X135800000Y-111050000D03*
D23*
X188341000Y-100758000D03*
D11*
X145728000Y-96769000D03*
X145728000Y-99319000D03*
X142903000Y-98044000D03*
X145728000Y-105913000D03*
X145728000Y-108463000D03*
X142903000Y-107188000D03*
X145728000Y-116068000D03*
X145728000Y-118618000D03*
X142903000Y-117343000D03*
M02*
