G04 #@! TF.FileFunction,Copper,L2,Bot,Signal*
%FSLAX46Y46*%
G04 Gerber Fmt 4.6, Leading zero omitted, Abs format (unit mm)*
G04 Created by KiCad (PCBNEW 4.0.6) date Tuesday, August 01, 2017 'AMt' 06:59:47 AM*
%MOMM*%
%LPD*%
G01*
G04 APERTURE LIST*
%ADD10C,0.100000*%
%ADD11R,1.700000X1.700000*%
%ADD12O,1.700000X1.700000*%
%ADD13C,2.000000*%
%ADD14C,0.600000*%
%ADD15C,0.685800*%
%ADD16C,0.254000*%
G04 APERTURE END LIST*
D10*
D11*
X107950000Y-99441000D03*
D12*
X107950000Y-101981000D03*
X107950000Y-104521000D03*
X107950000Y-107061000D03*
D13*
X126619000Y-110363000D03*
X131699000Y-118364000D03*
X153800000Y-121412000D03*
X153797000Y-111506000D03*
X188341000Y-85758000D03*
X188341000Y-90758000D03*
X188341000Y-95758000D03*
X188341000Y-100758000D03*
X188341000Y-115758000D03*
X188341000Y-120758000D03*
X188341000Y-110758000D03*
X188341000Y-105758000D03*
D14*
X132842000Y-99314000D03*
X119302495Y-99463415D03*
X112776000Y-114427000D03*
X109825000Y-94525000D03*
X109475000Y-93550000D03*
X113400000Y-94950000D03*
D15*
X129991421Y-90365659D03*
D14*
X112450000Y-99625000D03*
X112450000Y-96575000D03*
X139319000Y-86106000D03*
X138557000Y-116586000D03*
X139192000Y-106172000D03*
X139319000Y-97155000D03*
X118200000Y-96700000D03*
X137960000Y-86150000D03*
X135010000Y-96130000D03*
D16*
X113884933Y-94950000D02*
X113400000Y-94950000D01*
X119302495Y-99463415D02*
X114789080Y-94950000D01*
X114789080Y-94950000D02*
X113884933Y-94950000D01*
X112659341Y-90365659D02*
X129991421Y-90365659D01*
X109475000Y-93550000D02*
X112659341Y-90365659D01*
X132842000Y-99314000D02*
X132842000Y-95250000D01*
X132842000Y-95250000D02*
X128778000Y-91186000D01*
X128778000Y-91186000D02*
X113014000Y-91186000D01*
X113014000Y-91186000D02*
X109825000Y-94375000D01*
X109825000Y-94375000D02*
X109825000Y-94525000D01*
X108331000Y-99441000D02*
X108712000Y-99822000D01*
X107950000Y-99441000D02*
X108331000Y-99441000D01*
X112776000Y-114427000D02*
X112291067Y-114427000D01*
X112291067Y-114427000D02*
X105664000Y-107799933D01*
X105664000Y-107799933D02*
X105664000Y-99822000D01*
X105664000Y-99822000D02*
X106045000Y-99441000D01*
X106045000Y-99441000D02*
X107950000Y-99441000D01*
X126619000Y-110363000D02*
X126619000Y-110231000D01*
X126619000Y-110231000D02*
X139319000Y-97531000D01*
X139319000Y-97531000D02*
X139319000Y-97155000D01*
X139319000Y-86106000D02*
X139319000Y-96281000D01*
X126619000Y-108981000D02*
X126619000Y-110363000D01*
X139319000Y-96281000D02*
X126619000Y-108981000D01*
X126619000Y-110363000D02*
X126907000Y-110075000D01*
X131778000Y-106172000D02*
X139192000Y-106172000D01*
X126907000Y-110075000D02*
X127875000Y-110075000D01*
X127875000Y-110075000D02*
X131778000Y-106172000D01*
X126619000Y-113157000D02*
X130048000Y-116586000D01*
X130048000Y-116586000D02*
X138557000Y-116586000D01*
X126619000Y-110363000D02*
X126619000Y-113157000D01*
X120000000Y-98500000D02*
X118200000Y-96700000D01*
X120000000Y-108079213D02*
X120000000Y-98500000D01*
X130284787Y-118364000D02*
X120000000Y-108079213D01*
X131699000Y-118364000D02*
X130284787Y-118364000D01*
X135010000Y-96130000D02*
X135010000Y-89100000D01*
X135010000Y-89100000D02*
X137960000Y-86150000D01*
G36*
X191643000Y-126873000D02*
X105537000Y-126873000D01*
X105537000Y-124140619D01*
X107492613Y-124140619D01*
X107832155Y-124962372D01*
X108460321Y-125591636D01*
X109281481Y-125932611D01*
X110170619Y-125933387D01*
X110992372Y-125593845D01*
X111621636Y-124965679D01*
X111953019Y-124167619D01*
X179339613Y-124167619D01*
X179679155Y-124989372D01*
X180307321Y-125618636D01*
X181128481Y-125959611D01*
X182017619Y-125960387D01*
X182839372Y-125620845D01*
X183468636Y-124992679D01*
X183809611Y-124171519D01*
X183810387Y-123282381D01*
X183470845Y-122460628D01*
X182842679Y-121831364D01*
X182021519Y-121490389D01*
X181132381Y-121489613D01*
X180310628Y-121829155D01*
X179681364Y-122457321D01*
X179340389Y-123278481D01*
X179339613Y-124167619D01*
X111953019Y-124167619D01*
X111962611Y-124144519D01*
X111963387Y-123255381D01*
X111623845Y-122433628D01*
X110995679Y-121804364D01*
X110830547Y-121735795D01*
X152164716Y-121735795D01*
X152413106Y-122336943D01*
X152872637Y-122797278D01*
X153473352Y-123046716D01*
X154123795Y-123047284D01*
X154724943Y-122798894D01*
X155185278Y-122339363D01*
X155434716Y-121738648D01*
X155435284Y-121088205D01*
X155432636Y-121081795D01*
X186705716Y-121081795D01*
X186954106Y-121682943D01*
X187413637Y-122143278D01*
X188014352Y-122392716D01*
X188664795Y-122393284D01*
X189265943Y-122144894D01*
X189726278Y-121685363D01*
X189975716Y-121084648D01*
X189976284Y-120434205D01*
X189727894Y-119833057D01*
X189268363Y-119372722D01*
X188667648Y-119123284D01*
X188017205Y-119122716D01*
X187416057Y-119371106D01*
X186955722Y-119830637D01*
X186706284Y-120431352D01*
X186705716Y-121081795D01*
X155432636Y-121081795D01*
X155186894Y-120487057D01*
X154727363Y-120026722D01*
X154126648Y-119777284D01*
X153476205Y-119776716D01*
X152875057Y-120025106D01*
X152414722Y-120484637D01*
X152165284Y-121085352D01*
X152164716Y-121735795D01*
X110830547Y-121735795D01*
X110174519Y-121463389D01*
X109285381Y-121462613D01*
X108463628Y-121802155D01*
X107834364Y-122430321D01*
X107493389Y-123251481D01*
X107492613Y-124140619D01*
X105537000Y-124140619D01*
X105537000Y-108750563D01*
X111752252Y-114965815D01*
X111999462Y-115130996D01*
X112196819Y-115170253D01*
X112245673Y-115219192D01*
X112589201Y-115361838D01*
X112961167Y-115362162D01*
X113304943Y-115220117D01*
X113568192Y-114957327D01*
X113710838Y-114613799D01*
X113711162Y-114241833D01*
X113569117Y-113898057D01*
X113306327Y-113634808D01*
X112962799Y-113492162D01*
X112590833Y-113491838D01*
X112479526Y-113537829D01*
X107312315Y-108370618D01*
X107593108Y-108502486D01*
X107823000Y-108381819D01*
X107823000Y-107188000D01*
X108077000Y-107188000D01*
X108077000Y-108381819D01*
X108306892Y-108502486D01*
X108831358Y-108256183D01*
X109221645Y-107827924D01*
X109391476Y-107417890D01*
X109270155Y-107188000D01*
X108077000Y-107188000D01*
X107823000Y-107188000D01*
X106629845Y-107188000D01*
X106508524Y-107417890D01*
X106613827Y-107672130D01*
X106426000Y-107484303D01*
X106426000Y-100203000D01*
X106452560Y-100203000D01*
X106452560Y-100291000D01*
X106496838Y-100526317D01*
X106635910Y-100742441D01*
X106848110Y-100887431D01*
X106915541Y-100901086D01*
X106870853Y-100930946D01*
X106548946Y-101412715D01*
X106435907Y-101981000D01*
X106548946Y-102549285D01*
X106870853Y-103031054D01*
X107200026Y-103251000D01*
X106870853Y-103470946D01*
X106548946Y-103952715D01*
X106435907Y-104521000D01*
X106548946Y-105089285D01*
X106870853Y-105571054D01*
X107211553Y-105798702D01*
X107068642Y-105865817D01*
X106678355Y-106294076D01*
X106508524Y-106704110D01*
X106629845Y-106934000D01*
X107823000Y-106934000D01*
X107823000Y-106914000D01*
X108077000Y-106914000D01*
X108077000Y-106934000D01*
X109270155Y-106934000D01*
X109391476Y-106704110D01*
X109221645Y-106294076D01*
X108831358Y-105865817D01*
X108688447Y-105798702D01*
X109029147Y-105571054D01*
X109351054Y-105089285D01*
X109464093Y-104521000D01*
X109351054Y-103952715D01*
X109029147Y-103470946D01*
X108699974Y-103251000D01*
X109029147Y-103031054D01*
X109351054Y-102549285D01*
X109464093Y-101981000D01*
X109351054Y-101412715D01*
X109029147Y-100930946D01*
X108987548Y-100903150D01*
X109035317Y-100894162D01*
X109251441Y-100755090D01*
X109396431Y-100542890D01*
X109447440Y-100291000D01*
X109447440Y-99955523D01*
X109473999Y-99822000D01*
X109447440Y-99688477D01*
X109447440Y-98591000D01*
X109403162Y-98355683D01*
X109264090Y-98139559D01*
X109051890Y-97994569D01*
X108800000Y-97943560D01*
X107100000Y-97943560D01*
X106864683Y-97987838D01*
X106648559Y-98126910D01*
X106503569Y-98339110D01*
X106452560Y-98591000D01*
X106452560Y-98679000D01*
X106045000Y-98679000D01*
X105753395Y-98737004D01*
X105537000Y-98881594D01*
X105537000Y-93735167D01*
X108539838Y-93735167D01*
X108681883Y-94078943D01*
X108905005Y-94302455D01*
X108890162Y-94338201D01*
X108889838Y-94710167D01*
X109031883Y-95053943D01*
X109294673Y-95317192D01*
X109638201Y-95459838D01*
X110010167Y-95460162D01*
X110353943Y-95318117D01*
X110537212Y-95135167D01*
X112464838Y-95135167D01*
X112606883Y-95478943D01*
X112869673Y-95742192D01*
X113213201Y-95884838D01*
X113585167Y-95885162D01*
X113928943Y-95743117D01*
X113960114Y-95712000D01*
X114473450Y-95712000D01*
X118367370Y-99605921D01*
X118367333Y-99648582D01*
X118509378Y-99992358D01*
X118772168Y-100255607D01*
X119115696Y-100398253D01*
X119238000Y-100398360D01*
X119238000Y-108079213D01*
X119296004Y-108370818D01*
X119461185Y-108618028D01*
X129745971Y-118902815D01*
X129993182Y-119067996D01*
X130241196Y-119117329D01*
X130312106Y-119288943D01*
X130771637Y-119749278D01*
X131372352Y-119998716D01*
X132022795Y-119999284D01*
X132623943Y-119750894D01*
X133084278Y-119291363D01*
X133333716Y-118690648D01*
X133334284Y-118040205D01*
X133085894Y-117439057D01*
X132994996Y-117348000D01*
X137996534Y-117348000D01*
X138026673Y-117378192D01*
X138370201Y-117520838D01*
X138742167Y-117521162D01*
X139085943Y-117379117D01*
X139349192Y-117116327D01*
X139491838Y-116772799D01*
X139492162Y-116400833D01*
X139360339Y-116081795D01*
X186705716Y-116081795D01*
X186954106Y-116682943D01*
X187413637Y-117143278D01*
X188014352Y-117392716D01*
X188664795Y-117393284D01*
X189265943Y-117144894D01*
X189726278Y-116685363D01*
X189975716Y-116084648D01*
X189976284Y-115434205D01*
X189727894Y-114833057D01*
X189268363Y-114372722D01*
X188667648Y-114123284D01*
X188017205Y-114122716D01*
X187416057Y-114371106D01*
X186955722Y-114830637D01*
X186706284Y-115431352D01*
X186705716Y-116081795D01*
X139360339Y-116081795D01*
X139350117Y-116057057D01*
X139087327Y-115793808D01*
X138743799Y-115651162D01*
X138371833Y-115650838D01*
X138028057Y-115792883D01*
X137996886Y-115824000D01*
X130363631Y-115824000D01*
X127381000Y-112841370D01*
X127381000Y-111829795D01*
X152161716Y-111829795D01*
X152410106Y-112430943D01*
X152869637Y-112891278D01*
X153470352Y-113140716D01*
X154120795Y-113141284D01*
X154721943Y-112892894D01*
X155182278Y-112433363D01*
X155431716Y-111832648D01*
X155432284Y-111182205D01*
X155390796Y-111081795D01*
X186705716Y-111081795D01*
X186954106Y-111682943D01*
X187413637Y-112143278D01*
X188014352Y-112392716D01*
X188664795Y-112393284D01*
X189265943Y-112144894D01*
X189726278Y-111685363D01*
X189975716Y-111084648D01*
X189976284Y-110434205D01*
X189727894Y-109833057D01*
X189268363Y-109372722D01*
X188667648Y-109123284D01*
X188017205Y-109122716D01*
X187416057Y-109371106D01*
X186955722Y-109830637D01*
X186706284Y-110431352D01*
X186705716Y-111081795D01*
X155390796Y-111081795D01*
X155183894Y-110581057D01*
X154724363Y-110120722D01*
X154123648Y-109871284D01*
X153473205Y-109870716D01*
X152872057Y-110119106D01*
X152411722Y-110578637D01*
X152162284Y-111179352D01*
X152161716Y-111829795D01*
X127381000Y-111829795D01*
X127381000Y-111817221D01*
X127543943Y-111749894D01*
X128004278Y-111290363D01*
X128235819Y-110732748D01*
X128413815Y-110613815D01*
X132093631Y-106934000D01*
X138631534Y-106934000D01*
X138661673Y-106964192D01*
X139005201Y-107106838D01*
X139377167Y-107107162D01*
X139720943Y-106965117D01*
X139984192Y-106702327D01*
X140126838Y-106358799D01*
X140127079Y-106081795D01*
X186705716Y-106081795D01*
X186954106Y-106682943D01*
X187413637Y-107143278D01*
X188014352Y-107392716D01*
X188664795Y-107393284D01*
X189265943Y-107144894D01*
X189726278Y-106685363D01*
X189975716Y-106084648D01*
X189976284Y-105434205D01*
X189727894Y-104833057D01*
X189268363Y-104372722D01*
X188667648Y-104123284D01*
X188017205Y-104122716D01*
X187416057Y-104371106D01*
X186955722Y-104830637D01*
X186706284Y-105431352D01*
X186705716Y-106081795D01*
X140127079Y-106081795D01*
X140127162Y-105986833D01*
X139985117Y-105643057D01*
X139722327Y-105379808D01*
X139378799Y-105237162D01*
X139006833Y-105236838D01*
X138663057Y-105378883D01*
X138631886Y-105410000D01*
X132517630Y-105410000D01*
X136845835Y-101081795D01*
X186705716Y-101081795D01*
X186954106Y-101682943D01*
X187413637Y-102143278D01*
X188014352Y-102392716D01*
X188664795Y-102393284D01*
X189265943Y-102144894D01*
X189726278Y-101685363D01*
X189975716Y-101084648D01*
X189976284Y-100434205D01*
X189727894Y-99833057D01*
X189268363Y-99372722D01*
X188667648Y-99123284D01*
X188017205Y-99122716D01*
X187416057Y-99371106D01*
X186955722Y-99830637D01*
X186706284Y-100431352D01*
X186705716Y-101081795D01*
X136845835Y-101081795D01*
X139857815Y-98069816D01*
X140022996Y-97822605D01*
X140035216Y-97761171D01*
X140111192Y-97685327D01*
X140253838Y-97341799D01*
X140254162Y-96969833D01*
X140112117Y-96626057D01*
X140028938Y-96542733D01*
X140081000Y-96281000D01*
X140081000Y-96081795D01*
X186705716Y-96081795D01*
X186954106Y-96682943D01*
X187413637Y-97143278D01*
X188014352Y-97392716D01*
X188664795Y-97393284D01*
X189265943Y-97144894D01*
X189726278Y-96685363D01*
X189975716Y-96084648D01*
X189976284Y-95434205D01*
X189727894Y-94833057D01*
X189268363Y-94372722D01*
X188667648Y-94123284D01*
X188017205Y-94122716D01*
X187416057Y-94371106D01*
X186955722Y-94830637D01*
X186706284Y-95431352D01*
X186705716Y-96081795D01*
X140081000Y-96081795D01*
X140081000Y-91081795D01*
X186705716Y-91081795D01*
X186954106Y-91682943D01*
X187413637Y-92143278D01*
X188014352Y-92392716D01*
X188664795Y-92393284D01*
X189265943Y-92144894D01*
X189726278Y-91685363D01*
X189975716Y-91084648D01*
X189976284Y-90434205D01*
X189727894Y-89833057D01*
X189268363Y-89372722D01*
X188667648Y-89123284D01*
X188017205Y-89122716D01*
X187416057Y-89371106D01*
X186955722Y-89830637D01*
X186706284Y-90431352D01*
X186705716Y-91081795D01*
X140081000Y-91081795D01*
X140081000Y-86666466D01*
X140111192Y-86636327D01*
X140253838Y-86292799D01*
X140254021Y-86081795D01*
X186705716Y-86081795D01*
X186954106Y-86682943D01*
X187413637Y-87143278D01*
X188014352Y-87392716D01*
X188664795Y-87393284D01*
X189265943Y-87144894D01*
X189726278Y-86685363D01*
X189975716Y-86084648D01*
X189976284Y-85434205D01*
X189727894Y-84833057D01*
X189268363Y-84372722D01*
X188667648Y-84123284D01*
X188017205Y-84122716D01*
X187416057Y-84371106D01*
X186955722Y-84830637D01*
X186706284Y-85431352D01*
X186705716Y-86081795D01*
X140254021Y-86081795D01*
X140254162Y-85920833D01*
X140112117Y-85577057D01*
X139849327Y-85313808D01*
X139505799Y-85171162D01*
X139133833Y-85170838D01*
X138790057Y-85312883D01*
X138617468Y-85485171D01*
X138490327Y-85357808D01*
X138146799Y-85215162D01*
X137774833Y-85214838D01*
X137431057Y-85356883D01*
X137167808Y-85619673D01*
X137025162Y-85963201D01*
X137025124Y-86007246D01*
X134471185Y-88561185D01*
X134306004Y-88808395D01*
X134248000Y-89100000D01*
X134248000Y-95569534D01*
X134217808Y-95599673D01*
X134075162Y-95943201D01*
X134074838Y-96315167D01*
X134216883Y-96658943D01*
X134479673Y-96922192D01*
X134823201Y-97064838D01*
X135195167Y-97065162D01*
X135538943Y-96923117D01*
X135802192Y-96660327D01*
X135944838Y-96316799D01*
X135945162Y-95944833D01*
X135803117Y-95601057D01*
X135772000Y-95569886D01*
X135772000Y-89415630D01*
X138102505Y-87085125D01*
X138145167Y-87085162D01*
X138488943Y-86943117D01*
X138557000Y-86875179D01*
X138557000Y-95965369D01*
X126080185Y-108442185D01*
X125915004Y-108689395D01*
X125872652Y-108902312D01*
X125694057Y-108976106D01*
X125233722Y-109435637D01*
X124984284Y-110036352D01*
X124983716Y-110686795D01*
X125232106Y-111287943D01*
X125691637Y-111748278D01*
X125857000Y-111816943D01*
X125857000Y-112858582D01*
X120762000Y-107763583D01*
X120762000Y-98500000D01*
X120703996Y-98208395D01*
X120624995Y-98090162D01*
X120538815Y-97961184D01*
X119135125Y-96557495D01*
X119135162Y-96514833D01*
X118993117Y-96171057D01*
X118730327Y-95907808D01*
X118386799Y-95765162D01*
X118014833Y-95764838D01*
X117671057Y-95906883D01*
X117407808Y-96169673D01*
X117313500Y-96396790D01*
X115327895Y-94411185D01*
X115080685Y-94246004D01*
X114789080Y-94188000D01*
X113960466Y-94188000D01*
X113930327Y-94157808D01*
X113586799Y-94015162D01*
X113214833Y-94014838D01*
X112871057Y-94156883D01*
X112607808Y-94419673D01*
X112465162Y-94763201D01*
X112464838Y-95135167D01*
X110537212Y-95135167D01*
X110617192Y-95055327D01*
X110759838Y-94711799D01*
X110760007Y-94517623D01*
X113329630Y-91948000D01*
X128462370Y-91948000D01*
X132080000Y-95565630D01*
X132080000Y-98753534D01*
X132049808Y-98783673D01*
X131907162Y-99127201D01*
X131906838Y-99499167D01*
X132048883Y-99842943D01*
X132311673Y-100106192D01*
X132655201Y-100248838D01*
X133027167Y-100249162D01*
X133370943Y-100107117D01*
X133634192Y-99844327D01*
X133776838Y-99500799D01*
X133777162Y-99128833D01*
X133635117Y-98785057D01*
X133604000Y-98753886D01*
X133604000Y-95250000D01*
X133545996Y-94958395D01*
X133380815Y-94711185D01*
X130013208Y-91343578D01*
X130185084Y-91343728D01*
X130544633Y-91195166D01*
X130819961Y-90920318D01*
X130969151Y-90561029D01*
X130969490Y-90171996D01*
X130820928Y-89812447D01*
X130546080Y-89537119D01*
X130186791Y-89387929D01*
X129797758Y-89387590D01*
X129438209Y-89536152D01*
X129370584Y-89603659D01*
X112659341Y-89603659D01*
X112367736Y-89661663D01*
X112120525Y-89826844D01*
X109332495Y-92614875D01*
X109289833Y-92614838D01*
X108946057Y-92756883D01*
X108682808Y-93019673D01*
X108540162Y-93363201D01*
X108539838Y-93735167D01*
X105537000Y-93735167D01*
X105537000Y-82292619D01*
X107464613Y-82292619D01*
X107804155Y-83114372D01*
X108432321Y-83743636D01*
X109253481Y-84084611D01*
X110142619Y-84085387D01*
X110964372Y-83745845D01*
X111593636Y-83117679D01*
X111934611Y-82296519D01*
X111934668Y-82230619D01*
X179374613Y-82230619D01*
X179714155Y-83052372D01*
X180342321Y-83681636D01*
X181163481Y-84022611D01*
X182052619Y-84023387D01*
X182874372Y-83683845D01*
X183503636Y-83055679D01*
X183844611Y-82234519D01*
X183845387Y-81345381D01*
X183505845Y-80523628D01*
X182877679Y-79894364D01*
X182056519Y-79553389D01*
X181167381Y-79552613D01*
X180345628Y-79892155D01*
X179716364Y-80520321D01*
X179375389Y-81341481D01*
X179374613Y-82230619D01*
X111934668Y-82230619D01*
X111935387Y-81407381D01*
X111595845Y-80585628D01*
X110967679Y-79956364D01*
X110146519Y-79615389D01*
X109257381Y-79614613D01*
X108435628Y-79954155D01*
X107806364Y-80582321D01*
X107465389Y-81403481D01*
X107464613Y-82292619D01*
X105537000Y-82292619D01*
X105537000Y-78867000D01*
X191643000Y-78867000D01*
X191643000Y-126873000D01*
X191643000Y-126873000D01*
G37*
X191643000Y-126873000D02*
X105537000Y-126873000D01*
X105537000Y-124140619D01*
X107492613Y-124140619D01*
X107832155Y-124962372D01*
X108460321Y-125591636D01*
X109281481Y-125932611D01*
X110170619Y-125933387D01*
X110992372Y-125593845D01*
X111621636Y-124965679D01*
X111953019Y-124167619D01*
X179339613Y-124167619D01*
X179679155Y-124989372D01*
X180307321Y-125618636D01*
X181128481Y-125959611D01*
X182017619Y-125960387D01*
X182839372Y-125620845D01*
X183468636Y-124992679D01*
X183809611Y-124171519D01*
X183810387Y-123282381D01*
X183470845Y-122460628D01*
X182842679Y-121831364D01*
X182021519Y-121490389D01*
X181132381Y-121489613D01*
X180310628Y-121829155D01*
X179681364Y-122457321D01*
X179340389Y-123278481D01*
X179339613Y-124167619D01*
X111953019Y-124167619D01*
X111962611Y-124144519D01*
X111963387Y-123255381D01*
X111623845Y-122433628D01*
X110995679Y-121804364D01*
X110830547Y-121735795D01*
X152164716Y-121735795D01*
X152413106Y-122336943D01*
X152872637Y-122797278D01*
X153473352Y-123046716D01*
X154123795Y-123047284D01*
X154724943Y-122798894D01*
X155185278Y-122339363D01*
X155434716Y-121738648D01*
X155435284Y-121088205D01*
X155432636Y-121081795D01*
X186705716Y-121081795D01*
X186954106Y-121682943D01*
X187413637Y-122143278D01*
X188014352Y-122392716D01*
X188664795Y-122393284D01*
X189265943Y-122144894D01*
X189726278Y-121685363D01*
X189975716Y-121084648D01*
X189976284Y-120434205D01*
X189727894Y-119833057D01*
X189268363Y-119372722D01*
X188667648Y-119123284D01*
X188017205Y-119122716D01*
X187416057Y-119371106D01*
X186955722Y-119830637D01*
X186706284Y-120431352D01*
X186705716Y-121081795D01*
X155432636Y-121081795D01*
X155186894Y-120487057D01*
X154727363Y-120026722D01*
X154126648Y-119777284D01*
X153476205Y-119776716D01*
X152875057Y-120025106D01*
X152414722Y-120484637D01*
X152165284Y-121085352D01*
X152164716Y-121735795D01*
X110830547Y-121735795D01*
X110174519Y-121463389D01*
X109285381Y-121462613D01*
X108463628Y-121802155D01*
X107834364Y-122430321D01*
X107493389Y-123251481D01*
X107492613Y-124140619D01*
X105537000Y-124140619D01*
X105537000Y-108750563D01*
X111752252Y-114965815D01*
X111999462Y-115130996D01*
X112196819Y-115170253D01*
X112245673Y-115219192D01*
X112589201Y-115361838D01*
X112961167Y-115362162D01*
X113304943Y-115220117D01*
X113568192Y-114957327D01*
X113710838Y-114613799D01*
X113711162Y-114241833D01*
X113569117Y-113898057D01*
X113306327Y-113634808D01*
X112962799Y-113492162D01*
X112590833Y-113491838D01*
X112479526Y-113537829D01*
X107312315Y-108370618D01*
X107593108Y-108502486D01*
X107823000Y-108381819D01*
X107823000Y-107188000D01*
X108077000Y-107188000D01*
X108077000Y-108381819D01*
X108306892Y-108502486D01*
X108831358Y-108256183D01*
X109221645Y-107827924D01*
X109391476Y-107417890D01*
X109270155Y-107188000D01*
X108077000Y-107188000D01*
X107823000Y-107188000D01*
X106629845Y-107188000D01*
X106508524Y-107417890D01*
X106613827Y-107672130D01*
X106426000Y-107484303D01*
X106426000Y-100203000D01*
X106452560Y-100203000D01*
X106452560Y-100291000D01*
X106496838Y-100526317D01*
X106635910Y-100742441D01*
X106848110Y-100887431D01*
X106915541Y-100901086D01*
X106870853Y-100930946D01*
X106548946Y-101412715D01*
X106435907Y-101981000D01*
X106548946Y-102549285D01*
X106870853Y-103031054D01*
X107200026Y-103251000D01*
X106870853Y-103470946D01*
X106548946Y-103952715D01*
X106435907Y-104521000D01*
X106548946Y-105089285D01*
X106870853Y-105571054D01*
X107211553Y-105798702D01*
X107068642Y-105865817D01*
X106678355Y-106294076D01*
X106508524Y-106704110D01*
X106629845Y-106934000D01*
X107823000Y-106934000D01*
X107823000Y-106914000D01*
X108077000Y-106914000D01*
X108077000Y-106934000D01*
X109270155Y-106934000D01*
X109391476Y-106704110D01*
X109221645Y-106294076D01*
X108831358Y-105865817D01*
X108688447Y-105798702D01*
X109029147Y-105571054D01*
X109351054Y-105089285D01*
X109464093Y-104521000D01*
X109351054Y-103952715D01*
X109029147Y-103470946D01*
X108699974Y-103251000D01*
X109029147Y-103031054D01*
X109351054Y-102549285D01*
X109464093Y-101981000D01*
X109351054Y-101412715D01*
X109029147Y-100930946D01*
X108987548Y-100903150D01*
X109035317Y-100894162D01*
X109251441Y-100755090D01*
X109396431Y-100542890D01*
X109447440Y-100291000D01*
X109447440Y-99955523D01*
X109473999Y-99822000D01*
X109447440Y-99688477D01*
X109447440Y-98591000D01*
X109403162Y-98355683D01*
X109264090Y-98139559D01*
X109051890Y-97994569D01*
X108800000Y-97943560D01*
X107100000Y-97943560D01*
X106864683Y-97987838D01*
X106648559Y-98126910D01*
X106503569Y-98339110D01*
X106452560Y-98591000D01*
X106452560Y-98679000D01*
X106045000Y-98679000D01*
X105753395Y-98737004D01*
X105537000Y-98881594D01*
X105537000Y-93735167D01*
X108539838Y-93735167D01*
X108681883Y-94078943D01*
X108905005Y-94302455D01*
X108890162Y-94338201D01*
X108889838Y-94710167D01*
X109031883Y-95053943D01*
X109294673Y-95317192D01*
X109638201Y-95459838D01*
X110010167Y-95460162D01*
X110353943Y-95318117D01*
X110537212Y-95135167D01*
X112464838Y-95135167D01*
X112606883Y-95478943D01*
X112869673Y-95742192D01*
X113213201Y-95884838D01*
X113585167Y-95885162D01*
X113928943Y-95743117D01*
X113960114Y-95712000D01*
X114473450Y-95712000D01*
X118367370Y-99605921D01*
X118367333Y-99648582D01*
X118509378Y-99992358D01*
X118772168Y-100255607D01*
X119115696Y-100398253D01*
X119238000Y-100398360D01*
X119238000Y-108079213D01*
X119296004Y-108370818D01*
X119461185Y-108618028D01*
X129745971Y-118902815D01*
X129993182Y-119067996D01*
X130241196Y-119117329D01*
X130312106Y-119288943D01*
X130771637Y-119749278D01*
X131372352Y-119998716D01*
X132022795Y-119999284D01*
X132623943Y-119750894D01*
X133084278Y-119291363D01*
X133333716Y-118690648D01*
X133334284Y-118040205D01*
X133085894Y-117439057D01*
X132994996Y-117348000D01*
X137996534Y-117348000D01*
X138026673Y-117378192D01*
X138370201Y-117520838D01*
X138742167Y-117521162D01*
X139085943Y-117379117D01*
X139349192Y-117116327D01*
X139491838Y-116772799D01*
X139492162Y-116400833D01*
X139360339Y-116081795D01*
X186705716Y-116081795D01*
X186954106Y-116682943D01*
X187413637Y-117143278D01*
X188014352Y-117392716D01*
X188664795Y-117393284D01*
X189265943Y-117144894D01*
X189726278Y-116685363D01*
X189975716Y-116084648D01*
X189976284Y-115434205D01*
X189727894Y-114833057D01*
X189268363Y-114372722D01*
X188667648Y-114123284D01*
X188017205Y-114122716D01*
X187416057Y-114371106D01*
X186955722Y-114830637D01*
X186706284Y-115431352D01*
X186705716Y-116081795D01*
X139360339Y-116081795D01*
X139350117Y-116057057D01*
X139087327Y-115793808D01*
X138743799Y-115651162D01*
X138371833Y-115650838D01*
X138028057Y-115792883D01*
X137996886Y-115824000D01*
X130363631Y-115824000D01*
X127381000Y-112841370D01*
X127381000Y-111829795D01*
X152161716Y-111829795D01*
X152410106Y-112430943D01*
X152869637Y-112891278D01*
X153470352Y-113140716D01*
X154120795Y-113141284D01*
X154721943Y-112892894D01*
X155182278Y-112433363D01*
X155431716Y-111832648D01*
X155432284Y-111182205D01*
X155390796Y-111081795D01*
X186705716Y-111081795D01*
X186954106Y-111682943D01*
X187413637Y-112143278D01*
X188014352Y-112392716D01*
X188664795Y-112393284D01*
X189265943Y-112144894D01*
X189726278Y-111685363D01*
X189975716Y-111084648D01*
X189976284Y-110434205D01*
X189727894Y-109833057D01*
X189268363Y-109372722D01*
X188667648Y-109123284D01*
X188017205Y-109122716D01*
X187416057Y-109371106D01*
X186955722Y-109830637D01*
X186706284Y-110431352D01*
X186705716Y-111081795D01*
X155390796Y-111081795D01*
X155183894Y-110581057D01*
X154724363Y-110120722D01*
X154123648Y-109871284D01*
X153473205Y-109870716D01*
X152872057Y-110119106D01*
X152411722Y-110578637D01*
X152162284Y-111179352D01*
X152161716Y-111829795D01*
X127381000Y-111829795D01*
X127381000Y-111817221D01*
X127543943Y-111749894D01*
X128004278Y-111290363D01*
X128235819Y-110732748D01*
X128413815Y-110613815D01*
X132093631Y-106934000D01*
X138631534Y-106934000D01*
X138661673Y-106964192D01*
X139005201Y-107106838D01*
X139377167Y-107107162D01*
X139720943Y-106965117D01*
X139984192Y-106702327D01*
X140126838Y-106358799D01*
X140127079Y-106081795D01*
X186705716Y-106081795D01*
X186954106Y-106682943D01*
X187413637Y-107143278D01*
X188014352Y-107392716D01*
X188664795Y-107393284D01*
X189265943Y-107144894D01*
X189726278Y-106685363D01*
X189975716Y-106084648D01*
X189976284Y-105434205D01*
X189727894Y-104833057D01*
X189268363Y-104372722D01*
X188667648Y-104123284D01*
X188017205Y-104122716D01*
X187416057Y-104371106D01*
X186955722Y-104830637D01*
X186706284Y-105431352D01*
X186705716Y-106081795D01*
X140127079Y-106081795D01*
X140127162Y-105986833D01*
X139985117Y-105643057D01*
X139722327Y-105379808D01*
X139378799Y-105237162D01*
X139006833Y-105236838D01*
X138663057Y-105378883D01*
X138631886Y-105410000D01*
X132517630Y-105410000D01*
X136845835Y-101081795D01*
X186705716Y-101081795D01*
X186954106Y-101682943D01*
X187413637Y-102143278D01*
X188014352Y-102392716D01*
X188664795Y-102393284D01*
X189265943Y-102144894D01*
X189726278Y-101685363D01*
X189975716Y-101084648D01*
X189976284Y-100434205D01*
X189727894Y-99833057D01*
X189268363Y-99372722D01*
X188667648Y-99123284D01*
X188017205Y-99122716D01*
X187416057Y-99371106D01*
X186955722Y-99830637D01*
X186706284Y-100431352D01*
X186705716Y-101081795D01*
X136845835Y-101081795D01*
X139857815Y-98069816D01*
X140022996Y-97822605D01*
X140035216Y-97761171D01*
X140111192Y-97685327D01*
X140253838Y-97341799D01*
X140254162Y-96969833D01*
X140112117Y-96626057D01*
X140028938Y-96542733D01*
X140081000Y-96281000D01*
X140081000Y-96081795D01*
X186705716Y-96081795D01*
X186954106Y-96682943D01*
X187413637Y-97143278D01*
X188014352Y-97392716D01*
X188664795Y-97393284D01*
X189265943Y-97144894D01*
X189726278Y-96685363D01*
X189975716Y-96084648D01*
X189976284Y-95434205D01*
X189727894Y-94833057D01*
X189268363Y-94372722D01*
X188667648Y-94123284D01*
X188017205Y-94122716D01*
X187416057Y-94371106D01*
X186955722Y-94830637D01*
X186706284Y-95431352D01*
X186705716Y-96081795D01*
X140081000Y-96081795D01*
X140081000Y-91081795D01*
X186705716Y-91081795D01*
X186954106Y-91682943D01*
X187413637Y-92143278D01*
X188014352Y-92392716D01*
X188664795Y-92393284D01*
X189265943Y-92144894D01*
X189726278Y-91685363D01*
X189975716Y-91084648D01*
X189976284Y-90434205D01*
X189727894Y-89833057D01*
X189268363Y-89372722D01*
X188667648Y-89123284D01*
X188017205Y-89122716D01*
X187416057Y-89371106D01*
X186955722Y-89830637D01*
X186706284Y-90431352D01*
X186705716Y-91081795D01*
X140081000Y-91081795D01*
X140081000Y-86666466D01*
X140111192Y-86636327D01*
X140253838Y-86292799D01*
X140254021Y-86081795D01*
X186705716Y-86081795D01*
X186954106Y-86682943D01*
X187413637Y-87143278D01*
X188014352Y-87392716D01*
X188664795Y-87393284D01*
X189265943Y-87144894D01*
X189726278Y-86685363D01*
X189975716Y-86084648D01*
X189976284Y-85434205D01*
X189727894Y-84833057D01*
X189268363Y-84372722D01*
X188667648Y-84123284D01*
X188017205Y-84122716D01*
X187416057Y-84371106D01*
X186955722Y-84830637D01*
X186706284Y-85431352D01*
X186705716Y-86081795D01*
X140254021Y-86081795D01*
X140254162Y-85920833D01*
X140112117Y-85577057D01*
X139849327Y-85313808D01*
X139505799Y-85171162D01*
X139133833Y-85170838D01*
X138790057Y-85312883D01*
X138617468Y-85485171D01*
X138490327Y-85357808D01*
X138146799Y-85215162D01*
X137774833Y-85214838D01*
X137431057Y-85356883D01*
X137167808Y-85619673D01*
X137025162Y-85963201D01*
X137025124Y-86007246D01*
X134471185Y-88561185D01*
X134306004Y-88808395D01*
X134248000Y-89100000D01*
X134248000Y-95569534D01*
X134217808Y-95599673D01*
X134075162Y-95943201D01*
X134074838Y-96315167D01*
X134216883Y-96658943D01*
X134479673Y-96922192D01*
X134823201Y-97064838D01*
X135195167Y-97065162D01*
X135538943Y-96923117D01*
X135802192Y-96660327D01*
X135944838Y-96316799D01*
X135945162Y-95944833D01*
X135803117Y-95601057D01*
X135772000Y-95569886D01*
X135772000Y-89415630D01*
X138102505Y-87085125D01*
X138145167Y-87085162D01*
X138488943Y-86943117D01*
X138557000Y-86875179D01*
X138557000Y-95965369D01*
X126080185Y-108442185D01*
X125915004Y-108689395D01*
X125872652Y-108902312D01*
X125694057Y-108976106D01*
X125233722Y-109435637D01*
X124984284Y-110036352D01*
X124983716Y-110686795D01*
X125232106Y-111287943D01*
X125691637Y-111748278D01*
X125857000Y-111816943D01*
X125857000Y-112858582D01*
X120762000Y-107763583D01*
X120762000Y-98500000D01*
X120703996Y-98208395D01*
X120624995Y-98090162D01*
X120538815Y-97961184D01*
X119135125Y-96557495D01*
X119135162Y-96514833D01*
X118993117Y-96171057D01*
X118730327Y-95907808D01*
X118386799Y-95765162D01*
X118014833Y-95764838D01*
X117671057Y-95906883D01*
X117407808Y-96169673D01*
X117313500Y-96396790D01*
X115327895Y-94411185D01*
X115080685Y-94246004D01*
X114789080Y-94188000D01*
X113960466Y-94188000D01*
X113930327Y-94157808D01*
X113586799Y-94015162D01*
X113214833Y-94014838D01*
X112871057Y-94156883D01*
X112607808Y-94419673D01*
X112465162Y-94763201D01*
X112464838Y-95135167D01*
X110537212Y-95135167D01*
X110617192Y-95055327D01*
X110759838Y-94711799D01*
X110760007Y-94517623D01*
X113329630Y-91948000D01*
X128462370Y-91948000D01*
X132080000Y-95565630D01*
X132080000Y-98753534D01*
X132049808Y-98783673D01*
X131907162Y-99127201D01*
X131906838Y-99499167D01*
X132048883Y-99842943D01*
X132311673Y-100106192D01*
X132655201Y-100248838D01*
X133027167Y-100249162D01*
X133370943Y-100107117D01*
X133634192Y-99844327D01*
X133776838Y-99500799D01*
X133777162Y-99128833D01*
X133635117Y-98785057D01*
X133604000Y-98753886D01*
X133604000Y-95250000D01*
X133545996Y-94958395D01*
X133380815Y-94711185D01*
X130013208Y-91343578D01*
X130185084Y-91343728D01*
X130544633Y-91195166D01*
X130819961Y-90920318D01*
X130969151Y-90561029D01*
X130969490Y-90171996D01*
X130820928Y-89812447D01*
X130546080Y-89537119D01*
X130186791Y-89387929D01*
X129797758Y-89387590D01*
X129438209Y-89536152D01*
X129370584Y-89603659D01*
X112659341Y-89603659D01*
X112367736Y-89661663D01*
X112120525Y-89826844D01*
X109332495Y-92614875D01*
X109289833Y-92614838D01*
X108946057Y-92756883D01*
X108682808Y-93019673D01*
X108540162Y-93363201D01*
X108539838Y-93735167D01*
X105537000Y-93735167D01*
X105537000Y-82292619D01*
X107464613Y-82292619D01*
X107804155Y-83114372D01*
X108432321Y-83743636D01*
X109253481Y-84084611D01*
X110142619Y-84085387D01*
X110964372Y-83745845D01*
X111593636Y-83117679D01*
X111934611Y-82296519D01*
X111934668Y-82230619D01*
X179374613Y-82230619D01*
X179714155Y-83052372D01*
X180342321Y-83681636D01*
X181163481Y-84022611D01*
X182052619Y-84023387D01*
X182874372Y-83683845D01*
X183503636Y-83055679D01*
X183844611Y-82234519D01*
X183845387Y-81345381D01*
X183505845Y-80523628D01*
X182877679Y-79894364D01*
X182056519Y-79553389D01*
X181167381Y-79552613D01*
X180345628Y-79892155D01*
X179716364Y-80520321D01*
X179375389Y-81341481D01*
X179374613Y-82230619D01*
X111934668Y-82230619D01*
X111935387Y-81407381D01*
X111595845Y-80585628D01*
X110967679Y-79956364D01*
X110146519Y-79615389D01*
X109257381Y-79614613D01*
X108435628Y-79954155D01*
X107806364Y-80582321D01*
X107465389Y-81403481D01*
X107464613Y-82292619D01*
X105537000Y-82292619D01*
X105537000Y-78867000D01*
X191643000Y-78867000D01*
X191643000Y-126873000D01*
M02*
