M48
;DRILL file {KiCad 4.0.6} date Tuesday, August 01, 2017 'AMt' 06:58:50 AM
;FORMAT={-:-/ absolute / metric / decimal}
FMAT,2
METRIC,TZ
T1C0.330
T2C0.400
T3C1.000
T4C1.020
T5C1.300
T6C3.200
%
G90
G05
M71
T1
X129.991Y-90.366
T2
X109.475Y-93.55
X109.825Y-94.525
X112.45Y-96.575
X112.45Y-99.625
X112.776Y-114.427
X113.4Y-94.95
X118.2Y-96.7
X119.302Y-99.463
X132.842Y-99.314
X135.01Y-96.13
X137.96Y-86.15
X138.557Y-116.586
X139.192Y-106.172
X139.319Y-86.106
X139.319Y-97.155
T3
X107.95Y-99.441
X107.95Y-101.981
X107.95Y-104.521
X107.95Y-107.061
T4
X126.619Y-110.363
X131.699Y-118.364
X153.797Y-111.506
X153.8Y-121.412
T5
X188.341Y-85.758
X188.341Y-90.758
X188.341Y-95.758
X188.341Y-100.758
X188.341Y-105.758
X188.341Y-110.758
X188.341Y-115.758
X188.341Y-120.758
T6
X109.7Y-81.85
X109.728Y-123.698
X181.575Y-123.725
X181.61Y-81.788
T0
M30
